<svg width="90" height="69" viewBox="0 0 90 69" fill="none" xmlns="http://www.w3.org/2000/svg">
<path fill-rule="evenodd" clip-rule="evenodd" d="M26.9223 6.25694C30.3404 2.83926 34.5579 1.08762 39.3863 1.08762C44.2147 1.08762 48.4322 2.83926 51.8504 6.25694C55.2685 9.67462 57.0204 13.8915 57.0204 18.7192V50.0723C57.0204 54.9 55.2685 59.1169 51.8504 62.5346C48.4322 65.9523 44.2147 67.7039 39.3863 67.7039C34.5579 67.7039 30.3404 65.9523 26.9223 62.5346C23.5041 59.1169 21.7522 54.9 21.7522 50.0723V18.7192C21.7522 13.8915 23.5041 9.67462 26.9223 6.25694ZM64.8739 1.08762H77.3745V55.1634H88.9123V67.7039H64.8739V1.08762ZM39.3863 13.5864C37.9273 13.5864 36.7809 14.0618 35.7546 15.088C34.7283 16.1142 34.2528 17.2604 34.2528 18.7192V50.0723C34.2528 51.4913 34.7197 52.6271 35.7546 53.6619C36.7809 54.688 37.9272 55.1634 39.3863 55.1634C40.8454 55.1634 41.9917 54.688 43.018 53.6619C44.0529 52.6271 44.5198 51.4913 44.5198 50.0723V18.7192C44.5198 17.2604 44.0443 16.1142 43.018 15.088C41.9917 14.0618 40.8454 13.5864 39.3863 13.5864Z" fill="white"/>
<path fill-rule="evenodd" clip-rule="evenodd" d="M13.987 67.7572H1.08765V46.9033L13.987 17.6737V67.7572Z" fill="white"/>
<path fill-rule="evenodd" clip-rule="evenodd" d="M1.08796 1.12206H13.5952L1.08796 29.0937V1.12206Z" fill="#ED1C24"/>
</svg>
