<svg width="19" height="19" viewBox="0 0 19 19" fill="none" xmlns="http://www.w3.org/2000/svg">
<path d="M6.04889 8.82895C6.85392 10.411 8.1509 11.708 9.733 12.5131L10.9629 11.2832C11.1194 11.1266 11.3375 11.0819 11.5331 11.1434C12.1593 11.3502 12.8301 11.4621 13.5289 11.4621C13.6772 11.4621 13.8194 11.521 13.9242 11.6258C14.0291 11.7306 14.088 11.8728 14.088 12.0211V13.9778C14.088 14.126 14.0291 14.2682 13.9242 14.3731C13.8194 14.4779 13.6772 14.5368 13.5289 14.5368C11.0084 14.5368 8.59104 13.5355 6.80874 11.7532C5.02643 9.97091 4.02515 7.55359 4.02515 5.03303C4.02515 4.88476 4.08405 4.74257 4.18889 4.63772C4.29373 4.53288 4.43592 4.47398 4.58419 4.47398H6.54085C6.68912 4.47398 6.83131 4.53288 6.93616 4.63772C7.041 4.74257 7.0999 4.88476 7.0999 5.03303C7.0999 5.73184 7.21171 6.40269 7.41855 7.02882C7.48005 7.22449 7.43532 7.44252 7.27879 7.59905L6.04889 8.82895Z" fill="#ED1C24"/>
</svg>
