<svg width="19" height="20" viewBox="0 0 19 20" fill="none" xmlns="http://www.w3.org/2000/svg">
<path fill-rule="evenodd" clip-rule="evenodd" d="M9.31314 3C10.9875 3 12.5933 3.66513 13.7772 4.84907C14.9611 6.03302 15.6263 7.63879 15.6263 9.31314C15.6263 11.4694 14.4506 13.2343 13.2119 14.5004C12.5929 15.1262 11.9176 15.6935 11.1945 16.1952L10.8956 16.3986L10.7553 16.4919L10.4909 16.6602L10.2552 16.804L9.96339 16.9738C9.76533 17.0868 9.5412 17.1463 9.31314 17.1463C9.08508 17.1463 8.86096 17.0868 8.66289 16.9738L8.37108 16.804L8.00632 16.5796L7.87164 16.4919L7.58404 16.3004C6.8039 15.7725 6.07724 15.1697 5.41443 14.5004C4.17565 13.2336 3 11.4694 3 9.31314C3 7.63879 3.66513 6.03302 4.84908 4.84907C6.03302 3.66513 7.63879 3 9.31314 3ZM9.31314 4.40292C8.01087 4.40292 6.76194 4.92024 5.84109 5.84109C4.92025 6.76193 4.40292 8.01087 4.40292 9.31314C4.40292 10.9419 5.29518 12.3715 6.41681 13.5191C6.89909 14.0073 7.42036 14.4554 7.97546 14.8589L8.29672 15.0876C8.40054 15.16 8.50038 15.2274 8.59625 15.2896L8.86982 15.4649L9.11042 15.6115L9.31314 15.7301L9.6323 15.5414L9.88974 15.3801C10.0268 15.2931 10.1734 15.1956 10.3296 15.0876L10.6508 14.8589C11.2059 14.4554 11.7272 14.0073 12.2095 13.5191C13.3311 12.3722 14.2234 10.9419 14.2234 9.31314C14.2234 8.01087 13.706 6.76193 12.7852 5.84109C11.8643 4.92024 10.6154 4.40292 9.31314 4.40292ZM9.31314 6.5073C10.0573 6.5073 10.771 6.80291 11.2972 7.32911C11.8234 7.85531 12.119 8.56898 12.119 9.31314C12.119 10.0573 11.8234 10.771 11.2972 11.2972C10.771 11.8234 10.0573 12.119 9.31314 12.119C8.56899 12.119 7.85531 11.8234 7.32911 11.2972C6.80291 10.771 6.5073 10.0573 6.5073 9.31314C6.5073 8.56898 6.80291 7.85531 7.32911 7.32911C7.85531 6.80291 8.56899 6.5073 9.31314 6.5073ZM9.31314 7.91022C8.94106 7.91022 8.58423 8.05802 8.32113 8.32112C8.05803 8.58422 7.91022 8.94106 7.91022 9.31314C7.91022 9.68521 8.05803 10.0421 8.32113 10.3052C8.58423 10.5683 8.94106 10.7161 9.31314 10.7161C9.68522 10.7161 10.0421 10.5683 10.3052 10.3052C10.5683 10.0421 10.7161 9.68521 10.7161 9.31314C10.7161 8.94106 10.5683 8.58422 10.3052 8.32112C10.0421 8.05802 9.68522 7.91022 9.31314 7.91022Z" fill="#ED1C24"/>
</svg>
